HIERARCHY
ROOT ETY1
{
	OFFSET 0.000000 0.000000 0.000000
	CHANNELS 6 Xposition Yposition Zposition Xrotation Yrotation Zrotation
	JOINT N_ALL
	{
		OFFSET 0.000000 0.000000 0.000000
		CHANNELS 3 Xrotation Yrotation Zrotation
		JOINT locator2
		{
			OFFSET 0.000000 0.000000 63.674999
			CHANNELS 3 Xrotation Yrotation Zrotation
			JOINT hara
			{
				OFFSET -0.000000 -0.000000 0.472500
				CHANNELS 3 Xrotation Yrotation Zrotation
				JOINT mune
				{
					OFFSET -0.000005 -0.000000 14.647499
					CHANNELS 3 Xrotation Yrotation Zrotation
					JOINT kubi
					{
						OFFSET -0.565367 0.000000 13.797264
						CHANNELS 3 Xrotation Yrotation Zrotation
						JOINT kao
						{
							OFFSET 0.709599 -0.000000 1.686798
							CHANNELS 3 Xrotation Yrotation Zrotation
							JOINT ago
							{
								OFFSET 1.521274 -0.000001 2.195969
								CHANNELS 3 Xrotation Yrotation Zrotation
								End Site
								{
									OFFSET -0.000000 0.000000 0.365990
								}
							}
							JOINT eyebrow
							{
								OFFSET 2.744157 -0.000001 4.250847
								CHANNELS 3 Xrotation Yrotation Zrotation
								End Site
								{
									OFFSET -0.000000 0.000000 0.365990
								}
							}
							JOINT lip
							{
								OFFSET 1.419795 -0.000001 0.927528
								CHANNELS 3 Xrotation Yrotation Zrotation
								End Site
								{
									OFFSET 0.365992 -0.000000 0.000000
								}
							}
						}
					}
					JOINT L_sako
					{
						OFFSET -0.472501 6.525000 10.465401
						CHANNELS 3 Xrotation Yrotation Zrotation
						JOINT L_kata
						{
							OFFSET -0.000001 5.850000 -0.581734
							CHANNELS 3 Xrotation Yrotation Zrotation
							JOINT L_hiji
							{
								OFFSET -0.483016 15.785759 -0.000015
								CHANNELS 3 Xrotation Yrotation Zrotation
								JOINT L_te
								{
									OFFSET 0.611527 17.032738 -0.013641
									CHANNELS 3 Xrotation Yrotation Zrotation
									JOINT LeftHandIndex1
									{
										OFFSET 2.549848 6.470253 0.791817
										CHANNELS 3 Xrotation Yrotation Zrotation
										JOINT LeftHandIndex2
										{
											OFFSET -0.000001 2.289848 0.000000
											CHANNELS 3 Xrotation Yrotation Zrotation
											JOINT LeftHandIndex3
											{
												OFFSET -0.000001 2.268135 0.000000
												CHANNELS 3 Xrotation Yrotation Zrotation
												End Site
												{
													OFFSET 0.000000 0.365993 0.000000
												}
											}
										}
									}
									JOINT LeftHandMiddle1
									{
										OFFSET 0.874708 6.694298 1.118919
										CHANNELS 3 Xrotation Yrotation Zrotation
										JOINT LeftHandMiddle2
										{
											OFFSET -0.000001 2.683815 0.000000
											CHANNELS 3 Xrotation Yrotation Zrotation
											JOINT LeftHandMiddle3
											{
												OFFSET -0.000001 2.217308 0.000000
												CHANNELS 3 Xrotation Yrotation Zrotation
												End Site
												{
													OFFSET -0.000000 0.365993 0.000000
												}
											}
										}
									}
									JOINT LeftHandPinky1
									{
										OFFSET -2.442180 5.931721 0.497902
										CHANNELS 3 Xrotation Yrotation Zrotation
										JOINT LeftHandPinky2
										{
											OFFSET -0.000000 2.137306 0.000000
											CHANNELS 3 Xrotation Yrotation Zrotation
											JOINT LeftHandPinky3
											{
												OFFSET -0.000000 1.836044 0.000000
												CHANNELS 3 Xrotation Yrotation Zrotation
												End Site
												{
													OFFSET 0.000000 0.365993 0.000000
												}
											}
										}
									}
									JOINT LeftHandRing1
									{
										OFFSET -0.853656 6.338440 0.870934
										CHANNELS 3 Xrotation Yrotation Zrotation
										JOINT LeftHandRing2
										{
											OFFSET -0.000001 2.531284 0.000000
											CHANNELS 3 Xrotation Yrotation Zrotation
											JOINT LeftHandRing3
											{
												OFFSET -0.000001 2.217308 0.000000
												CHANNELS 3 Xrotation Yrotation Zrotation
												End Site
												{
													OFFSET -0.000000 0.365993 0.000000
												}
											}
										}
									}
									JOINT LeftHandThumb1
									{
										OFFSET 2.594638 1.377514 -1.567856
										CHANNELS 3 Xrotation Yrotation Zrotation
										JOINT LeftHandThumb2
										{
											OFFSET 1.626614 2.409187 0.000557
											CHANNELS 3 Xrotation Yrotation Zrotation
											JOINT LeftHandThumb3
											{
												OFFSET 0.823900 2.113201 0.000290
												CHANNELS 3 Xrotation Yrotation Zrotation
												End Site
												{
													OFFSET 0.000000 0.365993 0.000000
												}
											}
										}
									}
								}
							}
						}
					}
					JOINT R_sako
					{
						OFFSET -0.472506 -6.525000 10.465546
						CHANNELS 3 Xrotation Yrotation Zrotation
						JOINT R_kata
						{
							OFFSET 0.000002 -5.850000 -0.581696
							CHANNELS 3 Xrotation Yrotation Zrotation
							JOINT R_hiji
							{
								OFFSET -0.483008 -15.785765 -0.000015
								CHANNELS 3 Xrotation Yrotation Zrotation
								JOINT R_te
								{
									OFFSET 0.611537 -17.032732 -0.013748
									CHANNELS 3 Xrotation Yrotation Zrotation
									JOINT RightHandIndex1
									{
										OFFSET 2.550124 -6.470253 0.790878
										CHANNELS 3 Xrotation Yrotation Zrotation
										JOINT RightHandIndex2
										{
											OFFSET 0.000001 -2.289848 0.000000
											CHANNELS 3 Xrotation Yrotation Zrotation
											JOINT RightHandIndex3
											{
												OFFSET 0.000001 -2.268135 0.000000
												CHANNELS 3 Xrotation Yrotation Zrotation
												End Site
												{
													OFFSET 0.000000 -0.365993 0.000000
												}
											}
										}
									}
									JOINT RightHandMiddle1
									{
										OFFSET 0.875098 -6.694302 1.118561
										CHANNELS 3 Xrotation Yrotation Zrotation
										JOINT RightHandMiddle2
										{
											OFFSET 0.000001 -2.683807 0.000000
											CHANNELS 3 Xrotation Yrotation Zrotation
											JOINT RightHandMiddle3
											{
												OFFSET 0.000001 -2.217308 0.000000
												CHANNELS 3 Xrotation Yrotation Zrotation
												End Site
												{
													OFFSET 0.000000 -0.365993 0.000000
												}
											}
										}
									}
									JOINT RightHandPinky1
									{
										OFFSET -2.442005 -5.931721 0.498680
										CHANNELS 3 Xrotation Yrotation Zrotation
										JOINT RightHandPinky2
										{
											OFFSET 0.000000 -2.137306 0.000000
											CHANNELS 3 Xrotation Yrotation Zrotation
											JOINT RightHandPinky3
											{
												OFFSET 0.000000 -1.836044 0.000000
												CHANNELS 3 Xrotation Yrotation Zrotation
												End Site
												{
													OFFSET 0.000000 -0.365993 0.000000
												}
											}
										}
									}
									JOINT RightHandRing1
									{
										OFFSET -0.853352 -6.338440 0.871170
										CHANNELS 3 Xrotation Yrotation Zrotation
										JOINT RightHandRing2
										{
											OFFSET 0.000001 -2.531284 0.000000
											CHANNELS 3 Xrotation Yrotation Zrotation
											JOINT RightHandRing3
											{
												OFFSET 0.000001 -2.217308 0.000000
												CHANNELS 3 Xrotation Yrotation Zrotation
												End Site
												{
													OFFSET 0.000000 -0.365993 0.000000
												}
											}
										}
									}
									JOINT RightHandThumb1
									{
										OFFSET 2.594098 -1.377514 -1.568817
										CHANNELS 3 Xrotation Yrotation Zrotation
										JOINT RightHandThumb2
										{
											OFFSET 1.626616 -2.409184 0.000000
											CHANNELS 3 Xrotation Yrotation Zrotation
											JOINT RightHandThumb3
											{
												OFFSET 0.823900 -2.113201 0.000000
												CHANNELS 3 Xrotation Yrotation Zrotation
												End Site
												{
													OFFSET 0.000000 -0.365993 0.000000
												}
											}
										}
									}
								}
							}
						}
					}
				}
			}
			JOINT koshi
			{
				OFFSET 0.000000 0.000000 0.000000
				CHANNELS 3 Xrotation Yrotation Zrotation
				JOINT L_momo
				{
					OFFSET 0.000005 5.033075 -8.541428
					CHANNELS 3 Xrotation Yrotation Zrotation
					JOINT L_hiza
					{
						OFFSET 0.236263 0.000015 -23.625002
						CHANNELS 3 Xrotation Yrotation Zrotation
						JOINT L_ashi
						{
							OFFSET -0.944986 0.000017 -25.908707
							CHANNELS 3 Xrotation Yrotation Zrotation
							JOINT L_ashi2
							{
								OFFSET 3.767458 0.000001 -3.875652
								CHANNELS 3 Xrotation Yrotation Zrotation
								End Site
								{
									OFFSET 0.365992 0.000000 0.000000
								}
							}
						}
					}
				}
				JOINT R_momo
				{
					OFFSET 0.000001 -5.033065 -8.541435
					CHANNELS 3 Xrotation Yrotation Zrotation
					JOINT R_hiza
					{
						OFFSET 0.236263 0.000015 -23.624998
						CHANNELS 3 Xrotation Yrotation Zrotation
						JOINT R_ashi
						{
							OFFSET -0.944986 0.000017 -25.908707
							CHANNELS 3 Xrotation Yrotation Zrotation
							JOINT R_ashi2
							{
								OFFSET 3.767459 0.000001 -3.875652
								CHANNELS 3 Xrotation Yrotation Zrotation
								End Site
								{
									OFFSET 0.365992 0.000000 0.000000
								}
							}
						}
					}
				}
			}
		}
	}
}
MOTION
Frames: 4
Frame Time: 0.041667
0.000000 0.000000 0.000000 -0.000000 0.000000 -89.999982 -0.000000 0.000000 -0.000000 -0.000000 0.000003 0.000000 0.071705 6.768694 -0.002654 -0.739156 11.717604 1.769837 1.368319 -22.396802 0.795195 -0.674137 8.926976 0.928368 0.000005 0.981230 0.000001 0.000013 0.048107 0.000002 0.000011 -0.036377 0.000014 -17.772082 11.410737 -1.426344 -58.939424 2.476390 -11.302355 -0.286773 -0.052595 -13.337085 -10.799367 1.118310 -5.460339 -54.123700 0.008343 0.271237 -71.617887 0.013569 -0.018799 -71.617887 0.013561 -0.018798 -47.127451 0.006320 -0.014520 -70.831562 0.013281 -0.018720 -70.831548 0.013282 -0.018728 -62.932940 0.010778 -0.017646 -66.371714 0.011848 -0.018133 -75.615651 0.014881 -0.019182 -56.269322 0.008791 -0.016478 -70.434195 0.013155 -0.018671 -70.434222 0.013152 -0.018673 -15.870892 0.818494 -0.491159 -0.007741 -0.001577 23.008071 -0.010482 -0.003009 31.973785 17.525596 11.100025 2.945924 57.130895 3.309923 15.327206 0.282646 -0.059299 11.918198 11.531587 12.626736 17.328243 54.124516 0.000546 -0.287704 71.618133 0.000009 0.000052 71.618112 0.000033 0.000043 47.128070 0.000025 0.000023 70.830585 0.000049 0.000019 70.831848 0.000046 0.000025 62.930542 0.000030 0.000030 66.370738 0.000035 0.000041 75.616471 0.000032 0.000043 56.269677 0.000019 0.000028 70.435076 0.000047 0.000029 70.434488 0.000041 0.000024 15.870180 0.817053 0.485489 0.000022 0.000009 -23.010301 0.000024 -0.000013 -31.982719 0.270447 -1.585446 -5.496492 5.282310 -4.887729 -0.080277 -0.424511 9.991909 -0.402762 -5.232473 -3.027972 5.908963 -0.000091 -0.000038 -0.000020 -5.730044 -6.329388 0.147107 -0.442767 10.454446 0.525656 5.829155 -1.748850 -0.559597 -0.000001 -0.000038 -0.000002 
0.000000 0.000000 0.000000 -0.000000 0.000000 -89.999982 -0.000000 0.000000 -0.000000 -0.000000 0.000003 0.000000 0.077147 6.735807 -0.002654 -0.738732 11.682385 1.769612 1.366023 -22.240875 0.791088 -0.674247 8.849755 0.928175 0.000005 1.068434 0.000001 0.000013 0.070739 0.000002 0.000011 -0.056317 0.000014 -17.728016 11.328514 -1.408118 -59.028059 2.639282 -11.155962 -0.286771 -0.054200 -13.241053 -10.833253 1.191019 -5.374085 -53.776825 0.008062 0.271006 -71.158372 0.013418 -0.018749 -71.158372 0.013412 -0.018747 -46.828248 0.006244 -0.014451 -70.377088 0.013135 -0.018669 -70.377088 0.013135 -0.018677 -62.526769 0.010654 -0.017580 -65.944356 0.011715 -0.018075 -75.101762 0.014711 -0.019137 -55.908186 0.008688 -0.016407 -69.982309 0.013008 -0.018619 -69.982323 0.013006 -0.018620 -15.499996 0.829022 -0.730690 -0.007533 -0.001491 22.364239 -0.010278 -0.002878 31.270426 17.484342 11.004797 2.958709 57.130892 3.358108 15.177727 0.282648 -0.060563 11.820798 11.424391 12.896777 17.561021 53.777648 -0.000039 -0.286845 71.156842 0.000007 0.000048 71.156180 0.000034 0.000043 46.828877 0.000021 0.000024 70.376350 0.000048 0.000019 70.377948 0.000045 0.000023 62.527049 0.000030 0.000031 65.946112 0.000030 0.000040 75.103326 0.000034 0.000041 55.908537 0.000015 0.000029 69.981292 0.000045 0.000029 69.983109 0.000040 0.000024 15.500430 0.828435 0.726330 0.000022 0.000008 -22.367153 0.000026 -0.000016 -31.279650 0.269732 -1.536398 -5.496364 5.282944 -4.959693 -0.071772 -0.424637 9.974211 -0.402741 -5.232577 -3.056425 5.906653 -0.000091 -0.000037 -0.000020 -5.731183 -6.417280 0.134909 -0.442804 10.458403 0.525663 5.829084 -1.761915 -0.557709 -0.000001 -0.000038 -0.000002 
0.000000 0.000000 0.000000 -0.000000 0.000000 -89.999982 -0.000000 0.000000 -0.000000 -0.000000 0.000003 0.000000 0.077145 6.702919 -0.002654 -0.737574 11.645672 1.769377 1.365617 -22.086426 0.788552 -0.674133 8.772534 0.926530 0.000005 1.155637 0.000000 0.000013 0.089993 0.000002 0.000011 -0.076200 0.000014 -17.684022 11.246356 -1.391906 -59.116694 2.802231 -11.009515 -0.286772 -0.054200 -13.145030 -10.867292 1.263259 -5.286373 -53.429950 0.007779 0.270787 -70.698919 0.013268 -0.018697 -70.698926 0.013261 -0.018696 -46.528994 0.006169 -0.014377 -69.922614 0.012986 -0.018615 -69.922614 0.012988 -0.018622 -62.123289 0.010531 -0.017515 -65.519792 0.011580 -0.018014 -74.587817 0.014537 -0.019091 -55.546998 0.008585 -0.016337 -69.530356 0.012860 -0.018562 -69.530370 0.012859 -0.018566 -15.130387 0.840451 -0.971732 -0.007328 -0.001407 21.722068 -0.010068 -0.002758 30.567122 17.441885 10.909515 2.973542 57.133761 3.406238 15.028243 0.282648 -0.060561 11.723395 11.321630 13.167020 17.793621 53.430722 -0.000228 -0.286554 70.698585 0.000009 0.000044 70.697239 0.000038 0.000044 46.529619 0.000025 0.000024 69.922054 0.000046 0.000021 69.921022 0.000047 0.000023 62.123583 0.000032 0.000030 65.518747 0.000032 0.000043 74.586977 0.000032 0.000041 55.547395 0.000021 0.000026 69.530486 0.000046 0.000027 69.528758 0.000040 0.000024 15.130805 0.839863 0.966490 0.000017 0.000009 -21.724002 0.000024 -0.000010 -30.574334 0.268948 -1.487350 -5.496239 5.283456 -5.031659 -0.064938 -0.424764 9.956503 -0.402719 -5.232752 -3.084879 5.903137 -0.000091 -0.000038 -0.000020 -5.732171 -6.505178 0.124377 -0.442804 10.458403 0.525664 5.829768 -1.777098 -0.556739 -0.000001 -0.000038 -0.000001 
0.000000 0.000000 0.000000 -0.000000 0.000000 -89.999982 -0.000000 0.000000 -0.000000 -0.000000 0.000003 0.000000 0.077144 6.670031 -0.002654 -0.738524 11.610395 1.769153 1.363420 -21.930496 0.784473 -0.674274 8.697027 0.926343 0.000005 1.242843 0.000001 0.000013 0.111306 0.000002 0.000011 -0.096133 0.000014 -17.640014 11.164135 -1.373681 -58.999365 2.926450 -10.881004 -0.286771 -0.054200 -13.049006 -10.906759 1.336290 -5.200527 -53.083086 0.008042 0.270169 -70.239405 0.013118 -0.018645 -70.239411 0.013111 -0.018643 -46.229790 0.006095 -0.014307 -69.468147 0.012839 -0.018560 -69.468147 0.012840 -0.018568 -61.719809 0.010408 -0.017450 -65.092420 0.011446 -0.017952 -74.073934 0.014367 -0.019043 -55.185859 0.008482 -0.016265 -69.078471 0.012715 -0.018508 -69.078484 0.012715 -0.018510 -14.759731 0.850477 -1.211265 -0.007121 -0.001326 21.079839 -0.009859 -0.002629 29.863759 17.404073 10.873250 2.967190 57.139542 3.454422 14.878754 0.282648 -0.060563 11.630059 11.217606 13.437272 18.026076 53.083851 0.000131 -0.285860 70.237301 0.000008 0.000048 70.238298 0.000035 0.000045 46.228404 0.000026 0.000024 69.467812 0.000046 0.000016 69.467115 0.000045 0.000026 61.720103 0.000030 0.000030 65.094189 0.000032 0.000042 74.073839 0.000038 0.000038 55.186262 0.000019 0.000029 69.076708 0.000045 0.000027 69.077378 0.000042 0.000025 14.759994 0.849752 1.206431 0.000019 0.000009 -21.080861 0.000022 -0.000013 -29.871259 0.262672 -1.438302 -5.496118 5.284139 -5.100527 -0.056375 -0.424890 9.938803 -0.402697 -5.232862 -3.113332 5.900831 -0.000091 -0.000038 -0.000020 -5.733381 -6.593129 0.112172 -0.442804 10.458402 0.525663 5.829680 -1.792335 -0.554852 -0.000001 -0.000038 -0.000002 
